<svg width="144" height="32" viewBox="0 0 144 32" fill="none" xmlns="http://www.w3.org/2000/svg">
<rect y="0.557617" width="30.8847" height="30.8847" rx="15.4424" fill="#FF0467"/>
<g clip-path="url(#clip0_107_965)">
<g clip-path="url(#clip1_107_965)">
<g clip-path="url(#clip2_107_965)">
<path opacity="0.21" d="M19.5554 24.6915C20.0629 24.7284 20.5852 24.4627 20.8408 24.0235C21.1001 23.5843 21.0816 23.0011 20.7926 22.5803C20.3111 21.8864 19.0109 21.7942 18.5108 22.536C17.9478 23.3739 18.5664 24.6177 19.5554 24.6915Z" stroke="#27131F" stroke-width="0.949589" stroke-miterlimit="10"/>
<path opacity="0.21" d="M12.4967 9.72859C12.0559 9.72859 11.6188 9.75071 11.1891 9.83561C10.8298 9.90573 10.4927 10.0349 10.289 10.3597C10.2038 10.4963 10.1446 10.6624 10.1186 10.8211C10.0223 11.4227 10.2001 11.9468 10.6113 12.4008C10.9076 12.7256 11.2521 12.9802 11.6522 13.1611C11.7596 13.2091 11.8596 13.2644 11.967 13.3161C12.1041 13.3826 12.1708 13.5007 12.1448 13.652C12.1041 13.866 12.0559 14.0801 11.9337 14.2684C11.7485 14.5525 11.4855 14.7371 11.1743 14.8626C10.8113 15.0065 10.4594 15.0028 10.0964 14.8478C9.74819 14.6965 9.41482 14.5193 9.11107 14.2905C8.72213 13.9952 8.39615 13.6409 8.15538 13.2128C7.83311 12.6481 7.69605 12.0354 7.72199 11.3895C7.7368 11.0278 7.80718 10.6771 7.91831 10.3339C8.01462 10.0386 8.14427 9.76548 8.30355 9.49974C8.67768 8.8686 9.18515 8.37403 9.81488 8.00494C10.4001 7.66538 11.0262 7.48453 11.6966 7.47714C12.6782 7.46976 13.6599 7.46976 14.6415 7.47714C15.2119 7.48083 15.7824 7.51036 16.3528 7.52882C16.9159 7.54727 17.4826 7.57311 18.0457 7.58049C19.031 7.59156 20.0163 7.60263 20.9979 7.59156C21.4424 7.58418 21.8906 7.52881 22.3352 7.48453C22.4648 7.47345 22.5907 7.43654 22.7167 7.41071C22.9426 7.36642 23.0538 7.41809 23.1501 7.62109C23.4131 8.16734 23.3686 8.70251 23.0686 9.21555C22.776 9.71382 22.3277 10.0202 21.8018 10.2268C21.335 10.4114 20.8461 10.4631 20.3534 10.4963C19.7718 10.5369 19.194 10.5 18.6161 10.4298C18.4161 10.404 18.3753 10.4483 18.3568 10.6476C18.3198 11.013 18.2716 11.3784 18.2309 11.7475C18.1864 12.1092 18.1457 12.4746 18.1049 12.8363C18.0938 12.9249 18.0938 13.0135 18.0753 13.102C18.0568 13.1943 18.0938 13.2202 18.179 13.2312C18.4161 13.2644 18.6532 13.2497 18.8902 13.2275C19.3903 13.1832 19.8644 13.043 20.3349 12.8843C20.4904 12.8326 20.646 12.7809 20.8053 12.7477C20.8609 12.7366 20.9386 12.7699 20.9868 12.8068C21.2313 13.0024 21.335 13.2644 21.3461 13.5708C21.3609 13.9694 21.2869 14.3422 21.0609 14.678C20.8942 14.929 20.6683 15.1173 20.4015 15.2575C19.8978 15.5196 19.3532 15.6118 18.7902 15.6118C18.5717 15.6118 18.3531 15.6008 18.1346 15.5934C17.9901 15.5897 17.9716 15.6082 17.9605 15.7521C17.9419 15.9662 17.9271 16.1802 17.9012 16.3943C17.8234 17.0919 17.7493 17.7858 17.6567 18.4833C17.5789 19.0886 17.4604 19.6903 17.2826 20.2771C17.1937 20.5687 17.1085 20.8603 17.0011 21.1445C16.8418 21.5763 16.6232 21.9786 16.3713 22.3624C16.0194 22.8976 15.5898 23.3664 15.0749 23.7539C14.5637 24.1341 14.0043 24.422 13.3709 24.5438C12.9598 24.6213 12.5449 24.636 12.1374 24.5438C11.5151 24.3961 10.978 24.0972 10.5965 23.5657C10.3853 23.2704 10.2372 22.9456 10.1483 22.5913C10.0001 22.0044 10.0001 21.4176 10.1223 20.8271C10.2298 20.3103 10.4187 19.8231 10.6706 19.3544C10.9447 18.845 11.278 18.38 11.6522 17.9408C12.0189 17.5089 12.4189 17.1066 12.856 16.7449C13.2413 16.4312 13.6376 16.1286 14.0303 15.8185C14.197 15.6893 14.3636 15.5602 14.5266 15.4236C14.6118 15.3535 14.6081 15.3387 14.5341 15.2575C14.4266 15.1394 14.3118 15.0287 14.2155 14.8995C13.9969 14.6079 13.9043 14.0801 14.1266 13.7443C14.2637 13.5339 14.4563 13.3899 14.6896 13.305C14.7489 13.2829 14.8082 13.2681 14.8674 13.2534C15.0378 13.2091 15.0934 13.15 15.1119 12.9766C15.1638 12.482 15.2712 11.9985 15.4194 11.526C15.5342 11.157 15.675 10.7952 15.8046 10.4335C15.8342 10.3486 15.875 10.2638 15.9083 10.1789C15.9305 10.1198 15.9194 10.0792 15.8453 10.0681C15.7528 10.0571 15.6638 10.0423 15.5712 10.0312C15.0934 9.96848 14.6193 9.89467 14.1414 9.84669C13.5969 9.78763 13.0487 9.75071 12.5004 9.70273C12.5004 9.71012 12.5004 9.7212 12.4967 9.72859ZM14.76 17.4979C14.7489 17.4905 14.7341 17.4868 14.723 17.4794C14.6044 17.5901 14.4822 17.6935 14.3711 17.8116C13.9784 18.236 13.6191 18.6863 13.2931 19.1661C12.9486 19.6718 12.6412 20.2033 12.4263 20.7791C12.3152 21.0743 12.2263 21.377 12.2486 21.6944C12.2782 22.0856 12.4486 22.3255 12.8708 22.44C13.0487 22.488 13.2154 22.4289 13.3598 22.3292C13.608 22.1594 13.7599 21.9085 13.8895 21.6427C14.0488 21.3142 14.1748 20.9747 14.2562 20.6203C14.3711 20.1147 14.4859 19.6091 14.5711 19.096C14.6489 18.6384 14.6859 18.177 14.7415 17.7156C14.7489 17.6455 14.7526 17.5717 14.76 17.4979Z" stroke="#27131F" stroke-width="0.949589" stroke-miterlimit="10"/>
<path d="M12.028 9.29694C11.5872 9.29694 11.1501 9.31909 10.7204 9.40396C10.3611 9.47409 10.024 9.60328 9.82027 9.92809C9.73507 10.0646 9.67579 10.2307 9.64986 10.3894C9.55355 10.9911 9.73136 11.5152 10.1425 11.9691C10.4389 12.2939 10.7834 12.5486 11.1834 12.7294C11.2909 12.7774 11.3909 12.8328 11.4983 12.8845C11.6353 12.9509 11.702 13.069 11.6761 13.2203C11.6353 13.4344 11.5872 13.6485 11.4649 13.8367C11.2797 14.1209 11.0167 14.3055 10.7056 14.4309C10.3426 14.5749 9.99065 14.5712 9.62764 14.4162C9.27945 14.2649 8.94607 14.0877 8.64232 13.8589C8.25338 13.5636 7.92741 13.2093 7.68663 12.7811C7.36436 12.2164 7.22731 11.6037 7.25324 10.9578C7.26805 10.5961 7.33843 10.2455 7.44956 9.90224C7.54587 9.60696 7.67552 9.33384 7.8348 9.0681C8.20893 8.43696 8.7164 7.94238 9.34612 7.5733C9.93139 7.23374 10.5574 7.04919 11.2279 7.0455C12.2095 7.03812 13.1911 7.03812 14.1727 7.0455C14.7432 7.04919 15.3136 7.07872 15.8841 7.09717C16.4471 7.11563 17.0139 7.14147 17.5769 7.14885C18.5622 7.15992 19.5476 7.17099 20.5292 7.15992C20.9737 7.15254 21.4219 7.09717 21.8664 7.05288C21.996 7.04181 22.122 7.0049 22.2479 6.97907C22.4739 6.93478 22.585 6.98645 22.6813 7.18945C22.9443 7.7357 22.8999 8.27087 22.5998 8.78391C22.3072 9.28218 21.859 9.58852 21.333 9.79522C20.8663 9.97975 20.3773 10.0314 19.8847 10.0646C19.3031 10.1052 18.7252 10.0683 18.1474 9.99822C17.9473 9.97236 17.9066 10.0167 17.8881 10.216C17.851 10.5814 17.8029 10.9468 17.7621 11.3158C17.7177 11.6776 17.6769 12.0429 17.6362 12.4047C17.6251 12.4932 17.6251 12.5818 17.6065 12.6704C17.588 12.7627 17.6251 12.7885 17.7103 12.7996C17.9473 12.8328 18.1844 12.818 18.4215 12.7959C18.9216 12.7516 19.3957 12.6113 19.8661 12.4526C20.0217 12.401 20.1773 12.3493 20.3366 12.3161C20.3921 12.305 20.4699 12.3382 20.5181 12.3751C20.7625 12.5707 20.8663 12.8328 20.8774 13.1391C20.8922 13.5378 20.8181 13.9105 20.5921 14.2464C20.4255 14.4974 20.1995 14.6856 19.9328 14.8259C19.429 15.0879 18.8845 15.1802 18.3215 15.1802C18.1029 15.1802 17.8844 15.1691 17.6658 15.1617C17.5213 15.158 17.5028 15.1765 17.4917 15.3204C17.4732 15.5345 17.4584 15.7486 17.4324 15.9627C17.3547 16.6602 17.2806 17.3541 17.188 18.0517C17.1102 18.657 16.9916 19.2586 16.8138 19.8455C16.7249 20.137 16.6397 20.4286 16.5323 20.7128C16.373 21.1447 16.1545 21.5469 15.9026 21.9308C15.5507 22.466 15.121 22.9347 14.6061 23.3223C14.0949 23.7024 13.5356 23.9903 12.9022 24.1121C12.491 24.1896 12.0761 24.2044 11.6687 24.1121C11.0464 23.9645 10.5092 23.6655 10.1277 23.134C9.91658 22.8388 9.7684 22.514 9.67949 22.1596C9.53133 21.5728 9.53133 20.986 9.65357 20.3954C9.76099 19.8787 9.94991 19.3915 10.2018 18.9227C10.4759 18.4134 10.8093 17.9484 11.1834 17.5091C11.5501 17.0773 11.9502 16.675 12.3873 16.3133C12.7725 15.9996 13.1689 15.6969 13.5615 15.3869C13.7282 15.2577 13.8949 15.1285 14.0579 14.992C14.1431 14.9218 14.1394 14.9071 14.0653 14.8259C13.9579 14.7078 13.8431 14.597 13.7467 14.4679C13.5282 14.1763 13.4356 13.6485 13.6578 13.3126C13.7949 13.1022 13.9875 12.9583 14.2209 12.8734C14.2802 12.8513 14.3394 12.8365 14.3987 12.8217C14.5691 12.7774 14.6246 12.7184 14.6432 12.5449C14.695 12.0503 14.8025 11.5668 14.9506 11.0944C15.0654 10.7253 15.2062 10.3636 15.3359 10.0019C15.3655 9.917 15.4062 9.83211 15.4396 9.74722C15.4618 9.68818 15.4507 9.64758 15.3766 9.63649C15.284 9.62543 15.1951 9.61066 15.1025 9.59958C14.6246 9.53683 14.1505 9.46303 13.6727 9.41505C13.1281 9.35599 12.5799 9.31909 12.0317 9.27109C12.0317 9.27848 12.028 9.28586 12.028 9.29694ZM14.2876 17.0662C14.2765 17.0589 14.2616 17.0552 14.2505 17.0478C14.132 17.1585 14.0097 17.2619 13.8986 17.38C13.506 17.8044 13.1467 18.2547 12.8207 18.7345C12.4762 19.2402 12.1687 19.7716 11.9539 20.3474C11.8428 20.6427 11.7539 20.9453 11.7761 21.2628C11.8057 21.654 11.9761 21.8939 12.3984 22.0083C12.5762 22.0563 12.7429 21.9972 12.8874 21.8976C13.1355 21.7278 13.2874 21.4768 13.4171 21.2111C13.5763 20.8826 13.7023 20.543 13.7838 20.1887C13.8986 19.6831 14.0134 19.1774 14.0986 18.6644C14.1764 18.2067 14.2135 17.7454 14.269 17.284C14.2802 17.2139 14.2839 17.1401 14.2876 17.0662Z" fill="white"/>
<path d="M19.2585 24.4405C19.7659 24.4774 20.2882 24.2117 20.5438 23.7725C20.8031 23.3333 20.7846 22.7501 20.4957 22.3294C20.0141 21.6355 18.7139 21.5432 18.2139 22.2851C17.6508 23.1192 18.2694 24.3667 19.2585 24.4405Z" fill="white"/>
</g>
</g>
</g>
<path d="M42.8186 17.1282V14.3667H48.2628V17.1282H42.8186ZM43.6668 22.2174H40.7869V8.78441H49.2491V11.5657H42.6608L43.6668 10.3624V22.2174Z" fill="#27131F"/>
<path d="M53.05 22.316C52.5635 22.316 52.1164 22.2174 51.7087 22.0201C51.3011 21.8229 50.9723 21.5204 50.7224 21.1128C50.4726 20.692 50.3477 20.1331 50.3477 19.4361V8.78441H53.2078V18.4104C53.2078 18.8969 53.2933 19.2126 53.4643 19.3572C53.6484 19.4887 53.8785 19.5545 54.1547 19.5545V22.2174C54.0232 22.2437 53.8456 22.2634 53.6221 22.2766C53.4117 22.3029 53.221 22.316 53.05 22.316Z" fill="#27131F"/>
<path d="M58.1891 22.2174H55.3092V12.5717H58.1891V22.2174ZM55.0528 9.53398C55.0528 9.02112 55.204 8.60688 55.5065 8.29128C55.8221 7.97567 56.2363 7.81787 56.7492 7.81787C57.262 7.81787 57.6697 7.97567 57.9721 8.29128C58.2877 8.60688 58.4455 9.02112 58.4455 9.53398C58.4455 10.0337 58.2877 10.4413 57.9721 10.7569C57.6697 11.0594 57.262 11.2106 56.7492 11.2106C56.2363 11.2106 55.8221 11.0594 55.5065 10.7569C55.204 10.4413 55.0528 10.0337 55.0528 9.53398Z" fill="#27131F"/>
<path d="M62.014 12.5717L62.7635 15.2346V22.2174H59.8836V12.5717H62.014ZM62.1323 16.8324L61.6392 16.6154V14.3864L61.8167 14.1497C61.9745 13.9262 62.1981 13.6697 62.4874 13.3804C62.7898 13.0911 63.1383 12.8478 63.5328 12.6506C63.9405 12.4402 64.3547 12.335 64.7755 12.335C64.9859 12.335 65.1766 12.3481 65.3476 12.3744C65.5185 12.4007 65.6566 12.4468 65.7618 12.5125V15.136H65.1109C64.2692 15.136 63.6052 15.2741 63.1186 15.5502C62.6452 15.8132 62.3164 16.2406 62.1323 16.8324Z" fill="#27131F"/>
<path d="M71.1289 22.3752C70.0638 22.3752 69.2222 22.1122 68.6041 21.5862C67.9992 21.0602 67.6967 20.1988 67.6967 19.0021V12.69L67.6573 12.5717L68.249 10.2441H70.5766V18.3709C70.5766 18.818 70.6818 19.1402 70.8922 19.3375C71.1026 19.5216 71.3788 19.6136 71.7207 19.6136C71.918 19.6136 72.1021 19.6005 72.273 19.5742C72.4571 19.5347 72.6083 19.4953 72.7267 19.4558V22.1582C72.5031 22.224 72.2599 22.2766 71.9969 22.316C71.747 22.3555 71.4577 22.3752 71.1289 22.3752ZM66.1976 15.2149V12.5717H72.7267V15.2149H66.1976Z" fill="#27131F"/>
<path d="M77.5093 22.4541C76.7992 22.4541 76.2206 22.3489 75.7735 22.1385C75.3395 21.9281 74.9976 21.6388 74.7478 21.2706C74.5111 20.8892 74.3467 20.4618 74.2546 19.9884C74.1757 19.5019 74.1363 18.989 74.1363 18.4498V12.5717H77.0162V18.292C77.0162 18.8312 77.128 19.1928 77.3515 19.3769C77.5751 19.5479 77.8512 19.6334 78.18 19.6334C78.4693 19.6334 78.752 19.5873 79.0282 19.4953C79.3043 19.3901 79.5739 19.2454 79.8369 19.0613C80.0999 18.8641 80.3366 18.6274 80.547 18.3512L81.0402 19.8109H80.2314V12.5717H83.1311V22.2174H80.981L80.3892 20.304L81.3755 20.3829C81.0599 20.7511 80.6917 21.0996 80.2709 21.4284C79.8632 21.744 79.4293 21.9938 78.969 22.1779C78.5087 22.362 78.0222 22.4541 77.5093 22.4541Z" fill="#27131F"/>
<path d="M89.6695 22.2174V8.78441H94.3642C95.7581 8.78441 96.9548 9.05399 97.9542 9.59315C98.9668 10.1192 99.7426 10.8885 100.282 11.901C100.834 12.9004 101.11 14.1037 101.11 15.5108C101.11 16.931 100.834 18.1408 100.282 19.1402C99.7426 20.1396 98.9668 20.9024 97.9542 21.4284C96.9416 21.9544 95.7384 22.2174 94.3445 22.2174H89.6695ZM92.5494 20.521L91.4054 19.4361H94.1472C94.9494 19.4361 95.6463 19.3046 96.2381 19.0416C96.843 18.7654 97.3098 18.3381 97.6386 17.7594C97.9805 17.1808 98.1514 16.4313 98.1514 15.5108C98.1514 14.6034 97.9871 13.8604 97.6583 13.2818C97.3296 12.7032 96.8627 12.2758 96.2578 11.9996C95.666 11.7103 94.9691 11.5657 94.1669 11.5657H91.2673L92.5494 10.7175V20.521Z" fill="#27131F"/>
<path d="M104.982 22.4738C104.285 22.4738 103.667 22.3423 103.128 22.0793C102.602 21.8031 102.194 21.4218 101.905 20.9352C101.615 20.4487 101.471 19.8832 101.471 19.2389C101.471 18.555 101.628 17.9764 101.944 17.503C102.26 17.0165 102.681 16.6417 103.207 16.3787C103.746 16.1157 104.344 15.9842 105.002 15.9842C105.962 15.9842 106.737 16.2011 107.329 16.6351C107.921 17.0691 108.315 17.6937 108.513 18.509L107.27 18.292V16.0433C107.27 15.6883 107.145 15.3793 106.895 15.1163C106.645 14.8532 106.244 14.7217 105.692 14.7217C105.337 14.7217 104.929 14.7678 104.469 14.8598C104.009 14.9387 103.535 15.0965 103.049 15.3332L102.201 13.2818C102.779 12.9925 103.397 12.7624 104.055 12.5914C104.725 12.4205 105.409 12.335 106.106 12.335C107 12.335 107.75 12.4928 108.355 12.8084C108.96 13.124 109.407 13.5711 109.696 14.1497C109.999 14.7283 110.15 15.399 110.15 16.1617V22.2174H107.803L107.23 20.3435L108.513 19.949C108.302 20.738 107.901 21.356 107.309 21.8031C106.718 22.2503 105.942 22.4738 104.982 22.4738ZM105.869 20.4224C106.303 20.4224 106.645 20.3106 106.895 20.087C107.158 19.8635 107.29 19.5808 107.29 19.2389C107.29 18.8706 107.158 18.5813 106.895 18.3709C106.645 18.1605 106.303 18.0553 105.869 18.0553C105.435 18.0553 105.094 18.1605 104.844 18.3709C104.594 18.5813 104.469 18.8706 104.469 19.2389C104.469 19.5808 104.594 19.8635 104.844 20.087C105.094 20.3106 105.435 20.4224 105.869 20.4224Z" fill="#27131F"/>
<path d="M115.869 22.3752C114.804 22.3752 113.963 22.1122 113.344 21.5862C112.74 21.0602 112.437 20.1988 112.437 19.0021V12.69L112.398 12.5717L112.989 10.2441H115.317V18.3709C115.317 18.818 115.422 19.1402 115.633 19.3375C115.843 19.5216 116.119 19.6136 116.461 19.6136C116.658 19.6136 116.842 19.6005 117.013 19.5742C117.197 19.5347 117.349 19.4953 117.467 19.4558V22.1582C117.243 22.224 117 22.2766 116.737 22.316C116.487 22.3555 116.198 22.3752 115.869 22.3752ZM110.938 15.2149V12.5717H117.467V15.2149H110.938Z" fill="#27131F"/>
<path d="M121.914 22.2174H119.034V12.5717H121.914V22.2174ZM118.778 9.53398C118.778 9.02112 118.929 8.60688 119.232 8.29128C119.547 7.97567 119.962 7.81787 120.474 7.81787C120.987 7.81787 121.395 7.97567 121.697 8.29128C122.013 8.60688 122.171 9.02112 122.171 9.53398C122.171 10.0337 122.013 10.4413 121.697 10.7569C121.395 11.0594 120.987 11.2106 120.474 11.2106C119.962 11.2106 119.547 11.0594 119.232 10.7569C118.929 10.4413 118.778 10.0337 118.778 9.53398Z" fill="#27131F"/>
<path d="M129.546 12.335C130.191 12.335 130.717 12.4468 131.124 12.6703C131.532 12.8807 131.841 13.1766 132.051 13.5579C132.275 13.9393 132.42 14.3733 132.485 14.8598C132.564 15.3332 132.604 15.8264 132.604 16.3392V22.2174H129.724V16.497C129.724 15.9447 129.625 15.5831 129.428 15.4121C129.231 15.228 128.968 15.136 128.639 15.136C128.363 15.136 128.073 15.1952 127.771 15.3135C127.482 15.4187 127.199 15.5699 126.923 15.7672C126.647 15.9644 126.403 16.188 126.193 16.4379L125.68 14.9782H126.489V22.2174H123.609V12.5717H125.739L126.331 14.485L125.345 14.4061C125.687 14.0248 126.075 13.6763 126.508 13.3607C126.942 13.0451 127.416 12.7952 127.929 12.6111C128.442 12.427 128.981 12.335 129.546 12.335Z" fill="#27131F"/>
<path d="M138.321 26.1625C137.808 26.1625 137.282 26.0835 136.743 25.9257C136.217 25.7811 135.73 25.5247 135.283 25.1565C134.836 24.8014 134.461 24.328 134.159 23.7362L134.001 23.4009L136.072 22.3357C136.401 22.8486 136.73 23.2168 137.059 23.4404C137.401 23.6639 137.834 23.7757 138.361 23.7757C138.965 23.7757 139.459 23.5784 139.84 23.1839C140.221 22.8026 140.412 22.224 140.412 21.4481V18.8443H140.609V14.9979H140.412L141.142 12.5717H143.292V20.8366C143.292 21.9675 143.095 22.9341 142.7 23.7362C142.306 24.5384 141.734 25.1433 140.984 25.551C140.248 25.9586 139.36 26.1625 138.321 26.1625ZM137.946 21.7045C137.078 21.7045 136.309 21.5073 135.638 21.1128C134.981 20.7183 134.455 20.1659 134.06 19.4558C133.679 18.7457 133.488 17.937 133.488 17.0296C133.488 16.1091 133.672 15.3004 134.041 14.6034C134.422 13.8933 134.948 13.341 135.619 12.9465C136.289 12.5388 137.052 12.335 137.907 12.335C138.709 12.335 139.413 12.5322 140.017 12.9267C140.622 13.3212 141.096 13.867 141.438 14.5639C141.78 15.2609 141.951 16.0828 141.951 17.0296C141.951 18.0027 141.786 18.8378 141.457 19.5347C141.129 20.2317 140.662 20.7709 140.057 21.1522C139.465 21.5204 138.762 21.7045 137.946 21.7045ZM138.499 19.1797C139.103 19.1797 139.597 18.9758 139.978 18.5682C140.372 18.1605 140.57 17.6477 140.57 17.0296C140.57 16.3852 140.372 15.8592 139.978 15.4516C139.597 15.0439 139.103 14.8401 138.499 14.8401C137.894 14.8401 137.394 15.0439 136.999 15.4516C136.618 15.8592 136.427 16.3852 136.427 17.0296C136.427 17.6477 136.618 18.1605 136.999 18.5682C137.394 18.9758 137.894 19.1797 138.499 19.1797Z" fill="#27131F"/>
<defs>
<clipPath id="clip0_107_965">
<rect width="30.8847" height="18.517" fill="white" transform="translate(0.000152588 6.72656)"/>
</clipPath>
<clipPath id="clip1_107_965">
<rect width="30.8847" height="18.517" fill="white" transform="translate(0.000152588 6.72656)"/>
</clipPath>
<clipPath id="clip2_107_965">
<rect width="16.8552" height="18.517" fill="white" transform="translate(7.01382 6.72656)"/>
</clipPath>
</defs>
</svg>
