<svg width="109" height="126" viewBox="0 0 109 126" fill="none" xmlns="http://www.w3.org/2000/svg">
<path fill-rule="evenodd" clip-rule="evenodd" d="M108.125 -2.02118C102.877 -12.5244 96.4443 -22.2611 89.6454 -31.7374C88.8684 -31.5377 89.551 -31.0538 89.2741 -30.7483C88.8337 -30.5449 88.3435 -31.6061 87.7771 -30.6622C87.2564 -29.7949 87.565 -29.1429 87.9317 -28.4702C89.8617 -24.9292 92.6491 -21.9385 94.3312 -18.204C94.9069 -16.927 95.1585 -15.3632 96.5781 -14.3684C97.4521 -13.7563 97.2462 -12.2086 98.0185 -11.1894C98.5019 -10.5509 98.7706 -9.6577 99.3084 -8.93726C101.452 -6.06896 102.687 -2.82462 103.039 0.741302C103.102 1.38343 103.37 1.96487 103.965 1.98458C105.589 2.03904 107.201 2.71177 108.792 1.2911C109.948 0.259449 110.055 -0.674694 109.728 -1.91849C108.94 -4.9149 107.378 -7.55913 105.844 -10.2013C104.05 -13.2916 102.012 -16.2361 100.112 -19.2579C97.5558 -23.3223 94.6943 -27.1605 91.98 -31.1061C91.7217 -31.4811 91.4743 -32.2566 90.9079 -31.9153C90.4815 -31.6585 90.9307 -31.0444 91.174 -30.671C92.7082 -28.3162 94.3509 -26.0412 96.0335 -23.786C97.6461 -21.6247 98.9977 -19.2569 100.344 -16.9114C102.52 -13.1199 104.917 -9.45542 106.886 -5.54561C107.448 -4.43097 108.003 -3.3018 108.125 -2.02118Z" fill="#F3FF6D"/>
<path fill-rule="evenodd" clip-rule="evenodd" d="M116.421 43.3066C117.407 44.0992 118.12 42.8657 118.432 42.6152C119.275 41.9378 120.597 42.6365 120.927 41.8346C121.425 40.6204 122.5 39.5929 122.054 37.9663C121.192 34.82 119.886 31.8583 118.671 28.8546C117.79 26.6772 116.951 24.4785 115.665 22.4879C115.091 21.6004 114.432 20.8177 113.458 20.3716C112.46 19.9136 111.583 19.881 110.621 20.7041C109.91 21.313 108.992 21.7129 108.334 22.4287C107.706 23.1092 107.209 23.8214 107.948 24.7488C108.467 25.3992 108.373 26.2519 108.635 26.9936C109.686 29.974 110.086 33.1835 111.771 35.9393C113.021 37.9834 113.945 40.1831 114.909 42.3657C115.185 42.9907 115.452 43.7459 116.421 43.3066Z" fill="#F3FF6D"/>
<path fill-rule="evenodd" clip-rule="evenodd" d="M54.2568 20.9861C54.4886 21.5089 54.638 21.845 54.7822 22.1697C54.6111 22.3933 54.4529 22.26 54.2827 22.2122C53.9337 22.1137 53.8138 21.4451 53.3911 21.7122C52.8797 22.0354 53.5374 22.4223 53.498 22.8051C52.9383 22.9353 52.7894 22.2439 52.333 22.2247C51.6255 23.3129 51.9969 24.1889 52.6556 25.1651C54.4456 27.8176 55.997 30.6055 57.0416 33.6564C57.4358 34.8084 58.9114 35.3711 58.94 36.7083C58.9763 38.4044 59.7678 39.8769 60.6573 41.0896C62.1936 43.184 62.522 45.6483 63.4364 47.9247C63.6937 48.5653 63.3409 49.3542 63.9737 49.8791C64.1781 50.0487 64.4992 50.4352 64.6325 50.1094C65.0899 48.9963 65.9815 49.5327 66.7196 49.348C68.0895 49.0052 68.3592 47.6618 68.493 46.4802C68.7036 44.6182 68.1662 42.8173 67.4105 41.1575C64.5184 34.8022 61.1547 28.7051 56.9933 23.081C56.3595 22.2242 55.791 21.1489 54.2568 20.9861Z" fill="#F3FF6D"/>
<path fill-rule="evenodd" clip-rule="evenodd" d="M73.4182 -4.24927C73.7357 -3.26014 74.0422 -2.22486 74.399 -1.20669C76.6589 5.24776 79.5905 11.3998 82.7659 17.4455C83.9832 19.763 85.3862 21.9871 86.3074 24.4602C86.5709 25.1687 87.0445 25.7278 87.8894 24.9742C88.0886 24.7963 88.3842 24.7159 88.6477 24.6225C90.4003 24.0022 91.085 22.6588 90.5352 20.8356C89.9719 18.9653 88.9299 17.3273 87.92 15.6851C83.6471 8.73951 79.6279 1.66316 76.5599 -5.91578C76.1709 -6.87638 76.0583 -6.87534 75.3762 -6.144C75.3021 -6.06464 75.1516 -6.00707 75.0438 -6.01693C73.7714 -6.13052 73.6558 -5.19793 73.4182 -4.24927Z" fill="#F3FF6D"/>
<path fill-rule="evenodd" clip-rule="evenodd" d="M49.2026 99.6165C52.5335 99.6097 53.5372 98.1512 52.4101 95.3892C51.5289 93.2295 50.0299 91.4494 48.5828 89.6661C45.2046 85.5043 41.6885 81.4617 37.9452 77.6157C37.0297 76.6748 35.9182 76.3381 34.7771 75.9891C34.3787 75.8677 33.4907 75.6281 33.5245 75.9751C33.595 76.6846 32.8828 77.3293 33.5239 78.0887C36.387 81.4793 38.9421 85.109 41.5894 88.6672C42.7564 90.2362 44.0479 91.7154 45.1719 93.3135C45.9318 94.3944 46.7088 95.5625 45.938 97.0179C45.8457 97.1917 45.8934 97.6476 45.9754 97.6746C47.2907 98.1134 48.0859 99.5143 49.2026 99.6165Z" fill="#F3FF6D"/>
<path fill-rule="evenodd" clip-rule="evenodd" d="M15.1527 24.191C13.4421 22.2693 12.3777 19.9321 10.691 18.0223C10.1941 17.4601 9.59865 16.972 9.17385 16.3621C8.4726 15.3543 7.75111 16.1224 7.28741 16.4399C6.8372 16.7474 6.6261 17.4622 7.10899 18.1385C9.08101 20.9005 10.6671 23.9239 11.9991 27.0007C12.9483 29.1942 14.524 31.1154 14.8529 33.6678C14.9779 34.6341 15.6382 35.7493 16.0043 36.8312C16.494 38.2778 17.4997 37.0802 18.2756 37.0273C18.3981 37.019 18.5065 36.659 18.6185 36.6611C19.0962 36.6678 19.3773 37.8841 19.937 37.0403C20.6963 35.895 21.507 34.8146 20.9759 33.1216C20.132 30.4344 18.8358 28.01 17.4172 25.6309C15.494 22.4052 13.7201 19.0659 10.983 16.4041C10.7812 16.208 10.5961 15.9928 10.3803 15.8133C10.1578 15.6281 9.85851 15.4699 9.61992 15.6976C9.31649 15.9876 9.47728 16.3382 9.74284 16.556C12.0639 18.4565 13.2201 21.1977 14.8467 23.5982C14.9701 23.7807 15.0515 23.9929 15.1527 24.191Z" fill="#F3FF6D"/>
<path fill-rule="evenodd" clip-rule="evenodd" d="M72.4073 71.9306C71.6915 71.2553 70.8834 70.6526 70.2843 69.8865C69.5851 68.9928 68.8066 68.7967 67.8216 69.1862C67.236 69.4186 67.3605 70.0327 67.4171 70.4243C67.5628 71.4321 68.1593 72.2086 69.1334 72.5675C69.3663 72.6531 69.7169 72.4767 69.7164 72.8979C69.7112 74.9555 71.5157 76.051 72.2911 77.6993C72.5292 78.2045 72.9726 78.6843 73.2849 79.2025C74.1967 80.7155 74.9426 82.3592 76.8752 82.9385C77.3254 83.0734 78.0391 83.4764 77.7958 84.1605C77.0536 86.2472 78.5152 87.6409 79.3446 89.1881C80.7077 91.7301 82.437 94.0652 83.701 96.6695C83.8436 96.9631 83.9318 97.3806 84.3416 97.279C84.8535 97.1514 84.1751 96.697 84.5304 96.4294C85.1684 96.7691 85.7285 97.6867 86.6181 96.6042C86.9355 96.2178 87.4018 96.8708 87.63 97.281C87.8038 97.5928 87.9946 97.8863 88.3862 97.6571C88.8598 97.3796 88.4516 97.0897 88.3266 96.835C86.0485 92.1923 83.2347 87.8748 80.3145 83.6216C77.7429 79.8757 75.1718 76.1293 72.6007 72.3844C72.5369 72.234 72.4721 72.0826 72.4073 71.9306Z" fill="#F3FF6D"/>
<path fill-rule="evenodd" clip-rule="evenodd" d="M47.5078 55.4515C45.931 53.0116 44.3422 50.5748 42.5876 48.2491C44.5891 49.7501 47.002 53.2336 47.5078 55.4515ZM44.4222 59.1553C44.9129 59.2985 43.6619 57.593 44.999 58.6403C45.0348 58.6683 45.1053 58.7113 45.1214 58.6989C46.0027 58.0147 46.7786 58.0531 47.5852 58.8892C47.7968 59.1086 49.4389 57.2684 49.4742 56.7248C49.5271 55.9042 49.3196 55.1272 48.9586 54.4089C46.9212 50.3518 44.055 46.9809 40.4336 44.2531C38.6597 42.9165 36.7987 43.0622 34.9413 44.0576C33.9439 44.5923 33.9485 45.235 34.7779 46.0353C35.6509 46.8771 36.4813 47.7698 37.2629 48.6972C38.1649 49.7672 38.9201 50.942 39.9128 51.9602C41.2168 53.2968 41.666 55.1926 42.6141 56.7798C43.1385 57.6558 43.6001 58.5448 44.4222 59.1553Z" fill="#F3FF6D"/>
<path fill-rule="evenodd" clip-rule="evenodd" d="M3.09507 61.5935C3.30254 62.3015 3.42754 62.7273 3.61789 63.3767C3.3015 63.1319 3.10855 63.0577 3.05046 62.9244C2.57846 61.8456 1.71123 62.1246 1.02813 62.4737C0.296788 62.8472 0.106951 63.6905 0.399486 64.4177C0.876671 65.6045 1.42855 66.7798 2.10179 67.8654C3.03075 69.3633 4.08159 70.811 4.71438 72.4469C5.3757 74.1554 6.33992 75.8178 5.92757 77.8266C5.73255 78.7748 6.52457 79.3318 7.39077 78.9439C7.86121 78.7322 8.28445 78.7561 8.74971 78.7794C11.6979 78.9267 13.2202 76.8359 12.075 74.0211C10.4603 70.0537 7.85447 66.6999 5.14074 63.4379C4.62206 62.8145 4.26469 61.9851 3.09507 61.5935Z" fill="#F3FF6D"/>
<path fill-rule="evenodd" clip-rule="evenodd" d="M110.567 123.554C110.585 124.613 109.691 125.128 109.567 125.973C110.873 126.151 111.697 125.443 111.982 123.985C112.293 122.401 111.797 120.942 111.026 119.679C109.386 116.992 108.018 114.15 105.727 111.83C104.83 110.922 104.211 109.453 103.339 108.355C100.854 105.223 98.2597 102.178 95.6974 99.1075C95.1829 98.4907 94.5724 97.9726 93.868 97.5706C93.5075 97.3647 93.1523 97.318 92.8167 97.5877C92.4562 97.8777 92.4961 98.248 92.6974 98.6054C92.9966 99.137 93.2653 99.6982 93.6393 100.174C97.1015 104.573 100.658 108.901 104.022 113.372C105.333 115.114 106.356 117.117 107.062 119.208C107.387 120.174 107.038 121.234 106.928 122.25C106.898 122.527 106.512 122.904 107.002 123.111C107.942 123.511 108.73 123.906 107.902 125.131C107.714 125.409 108.142 125.556 108.44 125.563C108.972 125.576 109.585 125.567 109.647 124.906C109.704 124.299 110.048 123.991 110.567 123.554Z" fill="#F3FF6D"/>
<path fill-rule="evenodd" clip-rule="evenodd" d="M88.021 51.3125C88.326 51.0962 88.4972 51.0547 88.6305 51.3789C89.1159 52.5599 89.5205 53.7907 90.1543 54.8877C90.5376 55.5506 90.4552 56.9178 91.923 56.519C92.1564 56.4557 92.1087 56.7498 92.0029 56.9163C91.7555 57.3053 91.909 57.5906 92.1772 57.9179C92.6347 58.4754 92.7607 59.0942 92.6419 59.8588C92.4215 61.2706 93.4039 61.9589 94.6954 61.3795C94.8505 61.3095 95.1259 61.074 95.1399 61.1715C95.4698 63.4724 96.7167 60.4215 97.2255 61.5362C97.6072 61.2187 97.7867 60.8147 97.8303 60.3157C97.9299 59.172 97.462 58.2047 96.9314 57.255C94.921 53.6569 92.0413 50.785 89.0879 47.9898C88.3768 47.3161 87.3052 47.2797 86.3835 47.0085C85.8426 46.8492 85.5236 47.2974 85.3187 47.7258C85.0381 48.313 85.3472 48.3742 85.8275 48.2175C85.8913 49.271 86.5801 50.0002 87.1455 50.8C87.3944 51.1522 87.5558 51.578 88.021 51.3125Z" fill="#F3FF6D"/>
<path fill-rule="evenodd" clip-rule="evenodd" d="M45.9804 -6.52444C46.0966 -6.61054 46.2122 -6.69664 46.3279 -6.78275C46.9949 -5.7262 47.6682 -4.67379 48.3191 -3.60739C48.3948 -3.48291 48.5432 -3.25832 48.3181 -3.12242C48.1614 -3.02802 47.8927 -3.00105 47.8393 -3.19919C47.5006 -4.46217 46.3154 -5.26561 45.9804 -6.52444ZM50.8948 6.30045C51.3072 6.89641 51.0131 7.9151 52.3124 7.99705C53.2517 8.0567 53.0821 7.60286 53.0826 7.11945C53.8902 7.19206 53.567 8.15162 54.2823 8.34197C54.5769 7.04372 54.0982 5.80096 54.1563 4.55354C54.1475 4.51671 54.1417 4.47625 54.1381 4.43268C53.135 3.57168 52.9037 2.28328 52.3476 1.17641C52.1184 0.718939 52.038 0.173288 51.7563 -0.241137C49.4897 -3.57573 47.6453 -7.1764 45.2039 -10.4073C43.2904 -12.9395 41.5959 -15.6355 39.5523 -18.0749C39.0824 -18.6356 38.6669 -19.2502 37.6586 -19.8379C38.4366 -18.4292 39.029 -17.3576 39.6208 -16.286C39.6063 -16.3285 39.5933 -16.3721 39.5819 -16.4172C41.1416 -15.1822 41.7769 -13.2756 43.1125 -11.8523C42.6561 -11.4659 42.5192 -11.8689 42.2998 -11.9145C41.9242 -11.9918 41.6924 -11.7563 41.5472 -11.4332C41.4756 -11.275 41.333 -11.0416 41.5856 -10.9768C42.7059 -10.6889 42.4372 -9.75943 42.4699 -9.02238C42.5062 -8.20754 42.9492 -7.75992 43.5861 -7.3958C44.5674 -6.83511 45.151 -6.03998 45.0457 -4.85272C45.2179 -4.59805 45.3895 -4.34286 45.5617 -4.08818C46.6344 -3.56224 48.1686 -1.00048 48.0597 0.0819988C48.6718 0.11364 48.9135 1.27341 49.7465 0.637505C49.9933 -0.0481892 50.1334 -0.372881 50.7745 0.480865C51.5847 1.55868 51.4545 3.02654 52.4317 3.98973C52.5769 4.13237 52.567 4.34295 52.3679 4.46484C52.109 4.62356 51.8689 4.50738 51.8295 4.25322C51.6573 3.15466 50.7802 2.38234 50.5146 1.3372C50.4021 0.896326 50.2833 0.510429 49.707 0.597569C49.3569 2.63338 50.9244 4.02396 51.4617 5.76206C51.5328 5.99235 52.3964 5.37201 52.0831 6.14692C51.9306 6.52504 51.3554 6.7128 50.8948 6.30045Z" fill="#F3FF6D"/>
<path fill-rule="evenodd" clip-rule="evenodd" d="M18.8139 100.333C19.1012 101.125 18.8787 101.839 18.6256 102.526C18.4923 102.887 18.3917 103.161 18.8242 103.31C19.219 103.447 19.4617 103.17 19.6017 102.869C19.9591 102.101 19.8704 101.245 19.6583 100.513C18.8497 97.7196 17.3336 95.2948 15.4637 93.0836C14.9087 92.428 14.251 91.8341 13.8164 91.1064C13.0264 89.7838 11.682 89.4067 10.4004 88.9887C9.80181 88.7931 9.68719 89.596 9.56426 90.0281C9.49424 90.2755 9.67629 90.7553 9.89673 90.8995C12.0269 92.2926 12.3698 94.8886 13.8148 96.7554C14.291 97.3705 14.0726 98.6179 14.6878 99.4343C15.1738 100.08 15.4357 100.886 16.3393 101.194C16.8605 101.371 16.4658 102.042 16.7013 102.441C16.8221 102.645 16.8963 102.892 17.1536 102.925C17.4098 102.958 17.7329 102.739 17.6868 102.575C17.3761 101.474 18.6764 101.194 18.8139 100.333Z" fill="#F3FF6D"/>
<path fill-rule="evenodd" clip-rule="evenodd" d="M72.4078 71.9307C72.4726 72.0826 72.5375 72.2341 72.6013 72.3845C74.4721 74.0334 75.9815 76.0215 77.4462 78.0002C79.4613 80.7223 81.2834 83.5973 83.0381 86.4978C84.5231 88.9527 86.4173 91.1586 87.4588 93.8931C87.8816 95.0031 88.5828 96.0161 89.8069 96.7739C90.0953 95.1027 89.031 94.0321 88.4174 92.8542C86.8012 89.7499 84.7596 86.9055 82.7518 84.0506C79.1294 78.9007 75.7263 73.5759 71.2117 69.1127C70.9534 68.8575 70.747 68.5063 70.1256 68.6962C70.5312 70.0479 71.8279 70.7574 72.4078 71.9307Z" fill="#F3FF6D"/>
<path fill-rule="evenodd" clip-rule="evenodd" d="M17.5801 52.212C18.1356 52.6191 17.4811 53.7187 18.3317 53.5398C19.0568 53.3868 18.7949 52.5024 18.6128 51.9412C17.4826 48.4661 15.2549 45.8944 12.0292 44.2103C11.5406 43.9551 10.8316 43.5656 10.3798 44.2881C9.97837 44.9287 10.5992 45.3182 10.9535 45.7191C12.4385 47.4017 13.8472 49.1196 14.2181 51.4386C14.3109 52.0211 14.7834 52.2311 15.2648 52.4282C15.4328 52.4972 15.6019 52.6098 15.7212 52.7452C16.6636 53.8168 17.3747 53.9298 17.5801 52.212Z" fill="#F3FF6D"/>
<path fill-rule="evenodd" clip-rule="evenodd" d="M54.1383 4.43254C54.1414 4.47611 54.1476 4.51708 54.1559 4.55391C54.4054 5.18514 54.95 5.69604 54.9033 6.4502C54.8867 6.71888 54.851 7.10063 55.2602 7.06535C55.6259 7.03372 55.5766 6.69398 55.5444 6.40456C55.2576 3.83139 54.3831 1.42523 53.4085 -0.944615C53.241 -1.35126 52.7508 -1.78799 52.3032 -1.57948C51.7731 -1.33259 52.1735 -0.808721 52.3613 -0.501663C53.2954 1.02585 53.7026 2.73179 54.1383 4.43254Z" fill="#F3FF6D"/>
<path fill-rule="evenodd" clip-rule="evenodd" d="M50.3437 5.56774C50.6206 4.59314 49.9106 3.94635 49.5381 3.19478C49.173 2.45774 48.7477 1.75026 48.3483 1.0293C48.2072 1.396 48.2404 1.7207 48.4448 2.07962C49.0999 3.23005 49.714 4.40331 50.3437 5.56774Z" fill="#F3FF6D"/>
</svg>
